{
  "accessors": [
    {
      "bufferView": 2,
      "componentType": 5126,
      "count": 1729,
      "max": [
        0.7278119921684265,
        0.1535560041666031,
        1.1330349445343018
      ],
      "min": [
        -0.7283989787101746,
        -0.2692129909992218,
        0.0032099999953061342
      ],
      "type": "VEC3"
    },
    {
      "bufferView": 2,
      "byteOffset": 20748,
      "componentType": 5126,
      "count": 1729,
      "max": [
        0.9997307658195496,
        0.9982897639274597,
        0.9959868788719177
      ],
      "min": [
        -0.9997348785400391,
        -0.9993038177490234,
        -1.0
      ],
      "type": "VEC3"
    },
    {
      "bufferView": 1,
      "componentType": 5126,
      "count": 1729,
      "max": [
        1.996201992034912,
        0.9953389763832092
      ],
      "min": [
        0.8762080073356628,
        -0.9935330152511597
      ],
      "type": "VEC2"
    },
    {
      "bufferView": 0,
      "componentType": 5125,
      "count": 5112,
      "type": "SCALAR"
    },
    {
      "bufferView": 2,
      "byteOffset": 41496,
      "componentType": 5126,
      "count": 334,
      "max": [
        0.2194090038537979,
        0.16182400286197662,
        0.9791160225868225
      ],
      "min": [
        -0.22057199478149414,
        -0.2134770005941391,
        0.3183020055294037
      ],
      "type": "VEC3"
    },
    {
      "bufferView": 2,
      "byteOffset": 45504,
      "componentType": 5126,
      "count": 334,
      "max": [
        0.9940169453620911,
        0.9975038766860962,
        0.9744226336479187
      ],
      "min": [
        -0.9949547052383423,
        -0.9898872375488281,
        -0.997365415096283
      ],
      "type": "VEC3"
    },
    {
      "bufferView": 1,
      "byteOffset": 13832,
      "componentType": 5126,
      "count": 334,
      "max": [
        1.9994230270385742,
        1.999709963798523
      ],
      "min": [
        0.0024190000258386135,
        -0.764631986618042
      ],
      "type": "VEC2"
    },
    {
      "bufferView": 0,
      "byteOffset": 20448,
      "componentType": 5125,
      "count": 1086,
      "type": "SCALAR"
    }
  ],
  "asset": {
    "extras": {
      "author": "burnt.melon (https://sketchfab.com/burnt.melon)",
      "license": "CC-BY-4.0 (http://creativecommons.org/licenses/by/4.0/)",
      "source": "https://sketchfab.com/3d-models/shrek-ff6a111c58c94d328b0880a38b912428",
      "title": "Shrek"
    },
    "generator": "Sketchfab-12.66.0",
    "version": "2.0"
  },
  "bufferViews": [
    {
      "buffer": 0,
      "byteLength": 24792,
      "name": "floatBufferViews",
      "target": 34963
    },
    {
      "buffer": 0,
      "byteLength": 16504,
      "byteOffset": 24792,
      "byteStride": 8,
      "name": "floatBufferViews",
      "target": 34962
    },
    {
      "buffer": 0,
      "byteLength": 49512,
      "byteOffset": 41296,
      "byteStride": 12,
      "name": "floatBufferViews",
      "target": 34962
    }
  ],
  "buffers": [
    {
      "byteLength": 90808,
      "uri": "scene.bin"
    }
  ],
  "images": [
    {
      "uri": "textures/Shrek_baseColor.png"
    },
    {
      "uri": "textures/shrekshirt_S_baseColor.png"
    }
  ],
  "materials": [
    {
      "doubleSided": true,
      "name": "Shrek",
      "pbrMetallicRoughness": {
        "baseColorTexture": {
          "index": 0
        },
        "metallicFactor": 0.0
      }
    },
    {
      "doubleSided": true,
      "name": "shrekshirt_S",
      "pbrMetallicRoughness": {
        "baseColorTexture": {
          "index": 1
        },
        "metallicFactor": 0.0
      }
    }
  ],
  "meshes": [
    {
      "name": "Object_0",
      "primitives": [
        {
          "attributes": {
            "NORMAL": 1,
            "POSITION": 0,
            "TEXCOORD_0": 2
          },
          "indices": 3,
          "material": 0,
          "mode": 4
        }
      ]
    },
    {
      "name": "Object_1",
      "primitives": [
        {
          "attributes": {
            "NORMAL": 5,
            "POSITION": 4,
            "TEXCOORD_0": 6
          },
          "indices": 7,
          "material": 1,
          "mode": 4
        }
      ]
    }
  ],
  "nodes": [
    {
      "children": [
        1
      ],
      "matrix": [
        1.0,
        0.0,
        0.0,
        0.0,
        0.0,
        2.220446049250313e-16,
        -1.0,
        0.0,
        0.0,
        1.0,
        2.220446049250313e-16,
        0.0,
        0.0,
        0.0,
        0.0,
        1.0
      ],
      "name": "Sketchfab_model"
    },
    {
      "children": [
        2,
        3
      ],
      "name": "CHARACTER_Shrek.obj.cleaner.materialmerger.gles"
    },
    {
      "mesh": 0,
      "name": "Object_2"
    },
    {
      "mesh": 1,
      "name": "Object_3"
    }
  ],
  "samplers": [
    {
      "magFilter": 9729,
      "minFilter": 9987,
      "wrapS": 10497,
      "wrapT": 10497
    }
  ],
  "scene": 0,
  "scenes": [
    {
      "name": "Sketchfab_Scene",
      "nodes": [
        0
      ]
    }
  ],
  "textures": [
    {
      "sampler": 0,
      "source": 0
    },
    {
      "sampler": 0,
      "source": 1
    }
  ]
}
